<svg width="137" height="40" viewBox="0 0 137 40" fill="none" xmlns="http://www.w3.org/2000/svg">
<path d="M45.077 30.9533L47.1977 38.8576L39.272 36.7426C36.114 38.8113 32.3369 40 28.2812 40C21.3307 40 15.2006 36.4647 11.5938 31.1077H26.0521V35.5538L39.4268 17.7692H30.5103V4.44616L27.1666 8.89232H11.6092C15.2161 3.53531 21.3461 0 28.2967 0C39.3803 0 48.3587 8.95407 48.3587 20.0077C48.3587 24.0525 47.1513 27.8039 45.077 30.9533Z" fill="white"/>
<path d="M23.8392 13.3398L20.4955 17.786H0L3.34368 13.3398H23.8392Z" fill="white"/>
<path d="M26.0693 22.2305V26.6766H4.49023L7.83391 22.2305H26.0693Z" fill="white"/>
<path d="M60.7295 7.51953H68.6552V35.5859H60.7295V7.51953Z" fill="white"/>
<path d="M70.8223 25.4884C70.8223 19.4212 75.5127 14.8516 82.1381 14.8516C88.7945 14.8516 93.5314 19.4212 93.5314 25.4884C93.5314 31.5247 88.7945 36.1252 82.1381 36.1252C75.5127 36.1252 70.8223 31.5247 70.8223 25.4884ZM85.5592 25.4575C85.5592 23.3425 84.2898 21.8913 82.2155 21.8913C80.0948 21.8913 78.7945 23.3579 78.7945 25.5038C78.7945 27.6188 80.1103 29.1163 82.2155 29.1163C84.2124 29.1009 85.5592 27.6497 85.5592 25.4575Z" fill="white"/>
<path d="M110.404 24.5786L116.875 35.6014H108.407L103.64 27.4192V35.6014H95.7139V7.51953H103.64V22.4636L108.222 15.3621H116.968L110.404 24.5786Z" fill="white"/>
<path d="M117.107 8.52185C117.107 5.83563 119.182 3.875 121.844 3.875C124.507 3.875 126.581 5.83563 126.581 8.52185C126.581 11.2081 124.507 13.0915 121.844 13.0915C119.182 13.0915 117.107 11.2081 117.107 8.52185ZM117.835 15.3609H125.761V35.6002H117.835V15.3609Z" fill="white"/>
<path d="M128.005 31.9415C128.005 29.5177 129.77 27.7578 132.092 27.7578C134.445 27.7578 136.209 29.5177 136.209 31.9415C136.209 34.2109 134.445 35.9709 132.092 35.9709C129.77 35.9863 128.005 34.2109 128.005 31.9415Z" fill="white"/>
<g clip-path="url(#clip0_11236_43236)">
<path d="M132.5 2.58203C134.111 2.58203 135.416 3.88782 135.416 5.4987C135.416 7.10957 134.111 8.41537 132.5 8.41537C130.889 8.41537 129.583 7.10957 129.583 5.4987C129.583 3.88782 130.889 2.58203 132.5 2.58203ZM132.5 3.16536C131.881 3.16536 131.287 3.4112 130.85 3.84878C130.412 4.28637 130.166 4.87986 130.166 5.4987C130.166 6.11754 130.412 6.71103 130.85 7.14861C131.287 7.5862 131.881 7.83203 132.5 7.83203C133.119 7.83203 133.712 7.5862 134.15 7.14861C134.587 6.71103 134.833 6.11754 134.833 5.4987C134.833 4.87986 134.587 4.28637 134.15 3.84878C133.712 3.4112 133.119 3.16536 132.5 3.16536ZM132.646 4.04036C132.868 4.04032 133.085 4.11312 133.262 4.24766C133.44 4.3822 133.568 4.5711 133.629 4.78556C133.689 5.00001 133.677 5.22825 133.595 5.43547C133.514 5.64268 133.367 5.81751 133.176 5.93328L133.92 6.95703H133.199L132.563 6.08203H131.916V6.95703H131.333V4.04036H132.646ZM132.646 4.6237H131.916V5.4987H132.646C132.754 5.4987 132.859 5.45823 132.94 5.38517C133.02 5.31211 133.07 5.21169 133.081 5.10349L133.083 5.0612C133.083 4.94517 133.037 4.83389 132.955 4.75184C132.873 4.66979 132.762 4.6237 132.646 4.6237Z" fill="white"/>
</g>
<defs>
<clipPath id="clip0_11236_43236">
<rect width="7" height="7" fill="white" transform="translate(129 2)"/>
</clipPath>
</defs>
</svg>
